<mxfile host="app.diagrams.net" modified="2024-04-18T08:25:45.744Z" agent="Mozilla/5.0 (Windows NT 10.0; Win64; x64) AppleWebKit/537.36 (KHTML, like Gecko) Chrome/123.0.0.0 Safari/537.36" etag="FuOmjNF-XknvH0y1nI3h" version="24.2.1" type="github">
  <diagram name="Page-1" id="BYYlmCfWg8yM8b7ZYo49">
    <mxGraphModel dx="1262" dy="557" grid="1" gridSize="10" guides="1" tooltips="1" connect="1" arrows="1" fold="1" page="1" pageScale="1" pageWidth="850" pageHeight="1100" math="0" shadow="0">
      <root>
        <mxCell id="0" />
        <mxCell id="1" parent="0" />
        <mxCell id="MKEDabIsSQttyD_tJTwk-31" value="" style="endArrow=diamondThin;endFill=1;endSize=24;html=1;rounded=0;exitX=1;exitY=0.5;exitDx=0;exitDy=0;" edge="1" parent="1" source="MKEDabIsSQttyD_tJTwk-2" target="MKEDabIsSQttyD_tJTwk-4">
          <mxGeometry width="160" relative="1" as="geometry">
            <mxPoint x="535" y="655" as="sourcePoint" />
            <mxPoint x="420" y="730" as="targetPoint" />
          </mxGeometry>
        </mxCell>
        <mxCell id="MKEDabIsSQttyD_tJTwk-29" value="" style="endArrow=diamondThin;endFill=1;endSize=24;html=1;rounded=0;exitX=0;exitY=1;exitDx=0;exitDy=0;entryX=0.5;entryY=0;entryDx=0;entryDy=0;" edge="1" parent="1" source="MKEDabIsSQttyD_tJTwk-2" target="MKEDabIsSQttyD_tJTwk-13">
          <mxGeometry width="160" relative="1" as="geometry">
            <mxPoint x="465" y="736" as="sourcePoint" />
            <mxPoint x="350" y="811" as="targetPoint" />
          </mxGeometry>
        </mxCell>
        <mxCell id="MKEDabIsSQttyD_tJTwk-30" value="" style="endArrow=diamondThin;endFill=1;endSize=24;html=1;rounded=0;exitX=1;exitY=1;exitDx=0;exitDy=0;entryX=0.5;entryY=0;entryDx=0;entryDy=0;" edge="1" parent="1" source="MKEDabIsSQttyD_tJTwk-2" target="MKEDabIsSQttyD_tJTwk-18">
          <mxGeometry width="160" relative="1" as="geometry">
            <mxPoint x="515" y="736" as="sourcePoint" />
            <mxPoint x="400" y="811" as="targetPoint" />
          </mxGeometry>
        </mxCell>
        <mxCell id="MKEDabIsSQttyD_tJTwk-27" value="" style="endArrow=diamondThin;endFill=1;endSize=24;html=1;rounded=0;exitX=0;exitY=0.5;exitDx=0;exitDy=0;" edge="1" parent="1" source="MKEDabIsSQttyD_tJTwk-2" target="MKEDabIsSQttyD_tJTwk-9">
          <mxGeometry width="160" relative="1" as="geometry">
            <mxPoint x="309.5" y="680" as="sourcePoint" />
            <mxPoint x="220" y="740" as="targetPoint" />
          </mxGeometry>
        </mxCell>
        <mxCell id="ATb3_CvslVYvHJoZufAt-4" value="" style="ellipse;html=1;shape=startState;fillColor=#000000;strokeColor=#ff0000;" parent="1" vertex="1">
          <mxGeometry x="413.75" y="10" width="30" height="30" as="geometry" />
        </mxCell>
        <mxCell id="ATb3_CvslVYvHJoZufAt-5" value="" style="edgeStyle=orthogonalEdgeStyle;html=1;verticalAlign=bottom;endArrow=open;endSize=8;strokeColor=#ff0000;rounded=0;" parent="1" source="ATb3_CvslVYvHJoZufAt-4" target="ATb3_CvslVYvHJoZufAt-6" edge="1">
          <mxGeometry relative="1" as="geometry">
            <mxPoint x="405" y="140" as="targetPoint" />
          </mxGeometry>
        </mxCell>
        <mxCell id="ATb3_CvslVYvHJoZufAt-6" value="&lt;b&gt;&lt;font face=&quot;Verdana&quot; style=&quot;font-size: 16px;&quot;&gt;Main |&amp;nbsp;&lt;/font&gt;&lt;/b&gt;&lt;font face=&quot;Verdana&quot;&gt;&lt;span style=&quot;font-size: 16px;&quot;&gt;&lt;b&gt;主程序&lt;/b&gt;&lt;/span&gt;&lt;/font&gt;" style="swimlane;fontStyle=0;childLayout=stackLayout;horizontal=1;startSize=26;fillColor=#1ba1e2;horizontalStack=0;resizeParent=1;resizeParentMax=0;resizeLast=0;collapsible=1;marginBottom=0;whiteSpace=wrap;html=1;strokeColor=#006EAF;fontColor=#ffffff;rounded=1;" parent="1" vertex="1">
          <mxGeometry x="358.75" y="90" width="140" height="156" as="geometry" />
        </mxCell>
        <mxCell id="ATb3_CvslVYvHJoZufAt-7" value="+ board" style="text;strokeColor=none;fillColor=none;align=left;verticalAlign=top;spacingLeft=4;spacingRight=4;overflow=hidden;rotatable=0;points=[[0,0.5],[1,0.5]];portConstraint=eastwest;whiteSpace=wrap;html=1;" parent="ATb3_CvslVYvHJoZufAt-6" vertex="1">
          <mxGeometry y="26" width="140" height="26" as="geometry" />
        </mxCell>
        <mxCell id="ATb3_CvslVYvHJoZufAt-8" value="+ climate sensor" style="text;align=left;verticalAlign=top;spacingLeft=4;spacingRight=4;overflow=hidden;rotatable=0;points=[[0,0.5],[1,0.5]];portConstraint=eastwest;whiteSpace=wrap;html=1;" parent="ATb3_CvslVYvHJoZufAt-6" vertex="1">
          <mxGeometry y="52" width="140" height="26" as="geometry" />
        </mxCell>
        <mxCell id="ATb3_CvslVYvHJoZufAt-12" value="+ slide_potentiometer" style="text;align=left;verticalAlign=top;spacingLeft=4;spacingRight=4;overflow=hidden;rotatable=0;points=[[0,0.5],[1,0.5]];portConstraint=eastwest;whiteSpace=wrap;html=1;" parent="ATb3_CvslVYvHJoZufAt-6" vertex="1">
          <mxGeometry y="78" width="140" height="26" as="geometry" />
        </mxCell>
        <mxCell id="ATb3_CvslVYvHJoZufAt-13" value="+ home_guardian" style="text;align=left;verticalAlign=top;spacingLeft=4;spacingRight=4;overflow=hidden;rotatable=0;points=[[0,0.5],[1,0.5]];portConstraint=eastwest;whiteSpace=wrap;html=1;" parent="ATb3_CvslVYvHJoZufAt-6" vertex="1">
          <mxGeometry y="104" width="140" height="26" as="geometry" />
        </mxCell>
        <mxCell id="MKEDabIsSQttyD_tJTwk-54" value="+ main()" style="text;align=left;verticalAlign=top;spacingLeft=4;spacingRight=4;overflow=hidden;rotatable=0;points=[[0,0.5],[1,0.5]];portConstraint=eastwest;whiteSpace=wrap;html=1;" vertex="1" parent="ATb3_CvslVYvHJoZufAt-6">
          <mxGeometry y="130" width="140" height="26" as="geometry" />
        </mxCell>
        <mxCell id="ATb3_CvslVYvHJoZufAt-16" value="STOP" style="ellipse;whiteSpace=wrap;html=1;fillColor=#FF9933;" parent="1" vertex="1">
          <mxGeometry x="600" y="70" width="90" height="70" as="geometry" />
        </mxCell>
        <mxCell id="ATb3_CvslVYvHJoZufAt-17" value="" style="endArrow=open;endFill=1;endSize=12;html=1;rounded=0;entryX=0;entryY=0.5;entryDx=0;entryDy=0;" parent="1" source="ATb3_CvslVYvHJoZufAt-6" target="ATb3_CvslVYvHJoZufAt-16" edge="1">
          <mxGeometry width="160" relative="1" as="geometry">
            <mxPoint x="510" y="290" as="sourcePoint" />
            <mxPoint x="670" y="290" as="targetPoint" />
          </mxGeometry>
        </mxCell>
        <mxCell id="ATb3_CvslVYvHJoZufAt-18" value="" style="ellipse;html=1;shape=endState;fillColor=#000000;strokeColor=#ff0000;" parent="1" vertex="1">
          <mxGeometry x="740" y="90" width="30" height="30" as="geometry" />
        </mxCell>
        <mxCell id="ATb3_CvslVYvHJoZufAt-19" value="" style="endArrow=open;endFill=1;endSize=12;html=1;rounded=0;exitX=1;exitY=0.5;exitDx=0;exitDy=0;entryX=0;entryY=0.5;entryDx=0;entryDy=0;" parent="1" source="ATb3_CvslVYvHJoZufAt-16" target="ATb3_CvslVYvHJoZufAt-18" edge="1">
          <mxGeometry width="160" relative="1" as="geometry">
            <mxPoint x="510" y="290" as="sourcePoint" />
            <mxPoint x="670" y="290" as="targetPoint" />
          </mxGeometry>
        </mxCell>
        <mxCell id="ATb3_CvslVYvHJoZufAt-32" value="" style="endArrow=open;endFill=1;endSize=12;html=1;rounded=0;entryX=0;entryY=0.5;entryDx=0;entryDy=0;" parent="1" source="MKEDabIsSQttyD_tJTwk-35" target="ATb3_CvslVYvHJoZufAt-14" edge="1">
          <mxGeometry width="160" relative="1" as="geometry">
            <mxPoint x="272.0799999999999" y="343.40999999999997" as="sourcePoint" />
            <mxPoint x="416" y="407.4" as="targetPoint" />
          </mxGeometry>
        </mxCell>
        <mxCell id="ATb3_CvslVYvHJoZufAt-33" value="" style="endArrow=open;endFill=1;endSize=12;html=1;rounded=0;entryX=1;entryY=0.5;entryDx=0;entryDy=0;" parent="1" source="MKEDabIsSQttyD_tJTwk-46" target="ATb3_CvslVYvHJoZufAt-14" edge="1">
          <mxGeometry width="160" relative="1" as="geometry">
            <mxPoint x="570" y="340" as="sourcePoint" />
            <mxPoint x="358" y="345" as="targetPoint" />
          </mxGeometry>
        </mxCell>
        <mxCell id="MKEDabIsSQttyD_tJTwk-2" value="&lt;font style=&quot;&quot;&gt;&lt;span style=&quot;font-size: 14px;&quot;&gt;Observer Pattern&lt;/span&gt;&lt;br&gt;&lt;span style=&quot;font-size: 14px;&quot;&gt;观察者模式&lt;/span&gt;&lt;br&gt;&lt;/font&gt;" style="ellipse;whiteSpace=wrap;html=1;fillColor=#e51400;fontColor=#ffffff;strokeColor=#B20000;" vertex="1" parent="1">
          <mxGeometry x="359.37" y="750" width="140" height="100" as="geometry" />
        </mxCell>
        <mxCell id="MKEDabIsSQttyD_tJTwk-3" value="&lt;font style=&quot;font-size: 14px;&quot;&gt;notify | 通知&lt;/font&gt;" style="html=1;verticalAlign=bottom;endArrow=block;curved=0;rounded=0;exitX=1;exitY=0.5;exitDx=0;exitDy=0;" edge="1" parent="1" source="MKEDabIsSQttyD_tJTwk-2" target="MKEDabIsSQttyD_tJTwk-4">
          <mxGeometry width="80" relative="1" as="geometry">
            <mxPoint x="475" y="620" as="sourcePoint" />
            <mxPoint x="540" y="600" as="targetPoint" />
          </mxGeometry>
        </mxCell>
        <mxCell id="MKEDabIsSQttyD_tJTwk-4" value="&lt;font style=&quot;font-size: 14px;&quot;&gt;&lt;b&gt;Display |&amp;nbsp;&lt;/b&gt;&lt;/font&gt;&lt;span style=&quot;font-size: 14px;&quot;&gt;&lt;b&gt;显示屏&lt;/b&gt;&lt;/span&gt;" style="swimlane;fontStyle=0;childLayout=stackLayout;horizontal=1;startSize=26;fillColor=#fa6800;horizontalStack=0;resizeParent=1;resizeParentMax=0;resizeLast=0;collapsible=1;marginBottom=0;whiteSpace=wrap;html=1;rounded=1;fontColor=#000000;strokeColor=#C73500;" vertex="1" parent="1">
          <mxGeometry x="580" y="600" width="180" height="78" as="geometry" />
        </mxCell>
        <mxCell id="MKEDabIsSQttyD_tJTwk-5" value="+ lcd: LiquidCrystal_I2c" style="text;strokeColor=none;fillColor=none;align=left;verticalAlign=top;spacingLeft=4;spacingRight=4;overflow=hidden;rotatable=0;points=[[0,0.5],[1,0.5]];portConstraint=eastwest;whiteSpace=wrap;html=1;" vertex="1" parent="MKEDabIsSQttyD_tJTwk-4">
          <mxGeometry y="26" width="180" height="26" as="geometry" />
        </mxCell>
        <mxCell id="MKEDabIsSQttyD_tJTwk-6" value="+ show(line1, line2) -&amp;gt; None" style="text;strokeColor=none;fillColor=none;align=left;verticalAlign=top;spacingLeft=4;spacingRight=4;overflow=hidden;rotatable=0;points=[[0,0.5],[1,0.5]];portConstraint=eastwest;whiteSpace=wrap;html=1;" vertex="1" parent="MKEDabIsSQttyD_tJTwk-4">
          <mxGeometry y="52" width="180" height="26" as="geometry" />
        </mxCell>
        <mxCell id="MKEDabIsSQttyD_tJTwk-8" value="&lt;font style=&quot;font-size: 14px;&quot;&gt;notify | 通知&lt;/font&gt;" style="html=1;verticalAlign=bottom;endArrow=block;curved=0;rounded=0;exitX=0;exitY=0.5;exitDx=0;exitDy=0;" edge="1" parent="1" source="MKEDabIsSQttyD_tJTwk-2" target="MKEDabIsSQttyD_tJTwk-9">
          <mxGeometry x="-0.2251" y="2" width="80" relative="1" as="geometry">
            <mxPoint x="485" y="615" as="sourcePoint" />
            <mxPoint x="240" y="610" as="targetPoint" />
            <mxPoint as="offset" />
          </mxGeometry>
        </mxCell>
        <mxCell id="MKEDabIsSQttyD_tJTwk-9" value="&lt;b&gt;&lt;font style=&quot;font-size: 14px;&quot;&gt;LightBulb |&amp;nbsp;&lt;/font&gt;&lt;/b&gt;&lt;span style=&quot;font-size: 14px;&quot;&gt;&lt;b&gt;灯泡&lt;/b&gt;&lt;/span&gt;" style="swimlane;fontStyle=0;childLayout=stackLayout;horizontal=1;startSize=26;fillColor=#fa6800;horizontalStack=0;resizeParent=1;resizeParentMax=0;resizeLast=0;collapsible=1;marginBottom=0;whiteSpace=wrap;html=1;rounded=1;fontColor=#000000;strokeColor=#C73500;" vertex="1" parent="1">
          <mxGeometry x="80" y="590" width="180" height="208" as="geometry" />
        </mxCell>
        <mxCell id="MKEDabIsSQttyD_tJTwk-11" value="+ board" style="text;strokeColor=none;fillColor=none;align=left;verticalAlign=top;spacingLeft=4;spacingRight=4;overflow=hidden;rotatable=0;points=[[0,0.5],[1,0.5]];portConstraint=eastwest;whiteSpace=wrap;html=1;" vertex="1" parent="MKEDabIsSQttyD_tJTwk-9">
          <mxGeometry y="26" width="180" height="26" as="geometry" />
        </mxCell>
        <mxCell id="MKEDabIsSQttyD_tJTwk-64" value="+ turn_on() -&amp;gt; None" style="text;strokeColor=none;fillColor=none;align=left;verticalAlign=top;spacingLeft=4;spacingRight=4;overflow=hidden;rotatable=0;points=[[0,0.5],[1,0.5]];portConstraint=eastwest;whiteSpace=wrap;html=1;" vertex="1" parent="MKEDabIsSQttyD_tJTwk-9">
          <mxGeometry y="52" width="180" height="26" as="geometry" />
        </mxCell>
        <mxCell id="MKEDabIsSQttyD_tJTwk-65" value="+ turn_off() -&amp;gt; None" style="text;strokeColor=none;fillColor=none;align=left;verticalAlign=top;spacingLeft=4;spacingRight=4;overflow=hidden;rotatable=0;points=[[0,0.5],[1,0.5]];portConstraint=eastwest;whiteSpace=wrap;html=1;" vertex="1" parent="MKEDabIsSQttyD_tJTwk-9">
          <mxGeometry y="78" width="180" height="26" as="geometry" />
        </mxCell>
        <mxCell id="MKEDabIsSQttyD_tJTwk-66" value="+ set_color -&amp;gt; None" style="text;strokeColor=none;fillColor=none;align=left;verticalAlign=top;spacingLeft=4;spacingRight=4;overflow=hidden;rotatable=0;points=[[0,0.5],[1,0.5]];portConstraint=eastwest;whiteSpace=wrap;html=1;" vertex="1" parent="MKEDabIsSQttyD_tJTwk-9">
          <mxGeometry y="104" width="180" height="26" as="geometry" />
        </mxCell>
        <mxCell id="MKEDabIsSQttyD_tJTwk-67" value="+ get_color -&amp;gt; str" style="text;strokeColor=none;fillColor=none;align=left;verticalAlign=top;spacingLeft=4;spacingRight=4;overflow=hidden;rotatable=0;points=[[0,0.5],[1,0.5]];portConstraint=eastwest;whiteSpace=wrap;html=1;" vertex="1" parent="MKEDabIsSQttyD_tJTwk-9">
          <mxGeometry y="130" width="180" height="26" as="geometry" />
        </mxCell>
        <mxCell id="MKEDabIsSQttyD_tJTwk-68" value="+ blink(color1, color2) -&amp;gt; None" style="text;strokeColor=none;fillColor=none;align=left;verticalAlign=top;spacingLeft=4;spacingRight=4;overflow=hidden;rotatable=0;points=[[0,0.5],[1,0.5]];portConstraint=eastwest;whiteSpace=wrap;html=1;" vertex="1" parent="MKEDabIsSQttyD_tJTwk-9">
          <mxGeometry y="156" width="180" height="26" as="geometry" />
        </mxCell>
        <mxCell id="MKEDabIsSQttyD_tJTwk-74" value="&lt;font style=&quot;font-size: 14px;&quot;&gt;. . . . . .&lt;/font&gt;" style="text;strokeColor=none;fillColor=none;align=center;verticalAlign=top;spacingLeft=4;spacingRight=4;overflow=hidden;rotatable=0;points=[[0,0.5],[1,0.5]];portConstraint=eastwest;whiteSpace=wrap;html=1;" vertex="1" parent="MKEDabIsSQttyD_tJTwk-9">
          <mxGeometry y="182" width="180" height="26" as="geometry" />
        </mxCell>
        <mxCell id="MKEDabIsSQttyD_tJTwk-13" value="&lt;font style=&quot;font-size: 14px;&quot;&gt;&lt;b&gt;Fan |&amp;nbsp;&lt;/b&gt;&lt;/font&gt;&lt;span style=&quot;font-size: 14px;&quot;&gt;&lt;b&gt;风扇&lt;/b&gt;&lt;/span&gt;" style="swimlane;fontStyle=0;childLayout=stackLayout;horizontal=1;startSize=26;fillColor=#fa6800;horizontalStack=0;resizeParent=1;resizeParentMax=0;resizeLast=0;collapsible=1;marginBottom=0;whiteSpace=wrap;html=1;rounded=1;fontColor=#000000;strokeColor=#C73500;" vertex="1" parent="1">
          <mxGeometry x="150" y="910" width="140" height="156" as="geometry" />
        </mxCell>
        <mxCell id="MKEDabIsSQttyD_tJTwk-14" value="+ board" style="text;strokeColor=none;fillColor=none;align=left;verticalAlign=top;spacingLeft=4;spacingRight=4;overflow=hidden;rotatable=0;points=[[0,0.5],[1,0.5]];portConstraint=eastwest;whiteSpace=wrap;html=1;" vertex="1" parent="MKEDabIsSQttyD_tJTwk-13">
          <mxGeometry y="26" width="140" height="26" as="geometry" />
        </mxCell>
        <mxCell id="MKEDabIsSQttyD_tJTwk-15" value="+ fan_pin" style="text;strokeColor=none;fillColor=none;align=left;verticalAlign=top;spacingLeft=4;spacingRight=4;overflow=hidden;rotatable=0;points=[[0,0.5],[1,0.5]];portConstraint=eastwest;whiteSpace=wrap;html=1;" vertex="1" parent="MKEDabIsSQttyD_tJTwk-13">
          <mxGeometry y="52" width="140" height="26" as="geometry" />
        </mxCell>
        <mxCell id="MKEDabIsSQttyD_tJTwk-16" value="+ is_on" style="text;strokeColor=none;fillColor=none;align=left;verticalAlign=top;spacingLeft=4;spacingRight=4;overflow=hidden;rotatable=0;points=[[0,0.5],[1,0.5]];portConstraint=eastwest;whiteSpace=wrap;html=1;" vertex="1" parent="MKEDabIsSQttyD_tJTwk-13">
          <mxGeometry y="78" width="140" height="26" as="geometry" />
        </mxCell>
        <mxCell id="MKEDabIsSQttyD_tJTwk-70" value="+ turn_on() -&amp;gt; None" style="text;strokeColor=none;fillColor=none;align=left;verticalAlign=top;spacingLeft=4;spacingRight=4;overflow=hidden;rotatable=0;points=[[0,0.5],[1,0.5]];portConstraint=eastwest;whiteSpace=wrap;html=1;" vertex="1" parent="MKEDabIsSQttyD_tJTwk-13">
          <mxGeometry y="104" width="140" height="26" as="geometry" />
        </mxCell>
        <mxCell id="MKEDabIsSQttyD_tJTwk-69" value="+ turn_off() -&amp;gt; None" style="text;strokeColor=none;fillColor=none;align=left;verticalAlign=top;spacingLeft=4;spacingRight=4;overflow=hidden;rotatable=0;points=[[0,0.5],[1,0.5]];portConstraint=eastwest;whiteSpace=wrap;html=1;" vertex="1" parent="MKEDabIsSQttyD_tJTwk-13">
          <mxGeometry y="130" width="140" height="26" as="geometry" />
        </mxCell>
        <mxCell id="MKEDabIsSQttyD_tJTwk-17" value="&lt;font style=&quot;font-size: 14px;&quot;&gt;notify | 通知&lt;/font&gt;" style="html=1;verticalAlign=bottom;endArrow=block;curved=0;rounded=0;exitX=0;exitY=1;exitDx=0;exitDy=0;entryX=0.5;entryY=0;entryDx=0;entryDy=0;" edge="1" parent="1" source="MKEDabIsSQttyD_tJTwk-2" target="MKEDabIsSQttyD_tJTwk-13">
          <mxGeometry width="80" relative="1" as="geometry">
            <mxPoint x="345" y="615" as="sourcePoint" />
            <mxPoint x="290" y="614" as="targetPoint" />
          </mxGeometry>
        </mxCell>
        <mxCell id="MKEDabIsSQttyD_tJTwk-18" value="&lt;b&gt;&lt;font style=&quot;font-size: 14px;&quot;&gt;FireAlarm |&amp;nbsp;&lt;/font&gt;&lt;/b&gt;&lt;span style=&quot;font-size: 14px;&quot;&gt;&lt;b&gt;火警&lt;/b&gt;&lt;/span&gt;" style="swimlane;fontStyle=0;childLayout=stackLayout;horizontal=1;startSize=26;fillColor=#fa6800;horizontalStack=0;resizeParent=1;resizeParentMax=0;resizeLast=0;collapsible=1;marginBottom=0;whiteSpace=wrap;html=1;rounded=1;fontColor=#000000;strokeColor=#C73500;" vertex="1" parent="1">
          <mxGeometry x="550" y="884" width="140" height="182" as="geometry" />
        </mxCell>
        <mxCell id="MKEDabIsSQttyD_tJTwk-19" value="+ board" style="text;strokeColor=none;fillColor=none;align=left;verticalAlign=top;spacingLeft=4;spacingRight=4;overflow=hidden;rotatable=0;points=[[0,0.5],[1,0.5]];portConstraint=eastwest;whiteSpace=wrap;html=1;" vertex="1" parent="MKEDabIsSQttyD_tJTwk-18">
          <mxGeometry y="26" width="140" height="26" as="geometry" />
        </mxCell>
        <mxCell id="MKEDabIsSQttyD_tJTwk-20" value="+ tone_pin" style="text;strokeColor=none;fillColor=none;align=left;verticalAlign=top;spacingLeft=4;spacingRight=4;overflow=hidden;rotatable=0;points=[[0,0.5],[1,0.5]];portConstraint=eastwest;whiteSpace=wrap;html=1;" vertex="1" parent="MKEDabIsSQttyD_tJTwk-18">
          <mxGeometry y="52" width="140" height="26" as="geometry" />
        </mxCell>
        <mxCell id="MKEDabIsSQttyD_tJTwk-21" value="+ is_playing" style="text;strokeColor=none;fillColor=none;align=left;verticalAlign=top;spacingLeft=4;spacingRight=4;overflow=hidden;rotatable=0;points=[[0,0.5],[1,0.5]];portConstraint=eastwest;whiteSpace=wrap;html=1;" vertex="1" parent="MKEDabIsSQttyD_tJTwk-18">
          <mxGeometry y="78" width="140" height="26" as="geometry" />
        </mxCell>
        <mxCell id="MKEDabIsSQttyD_tJTwk-71" value="+ start() -&amp;gt; None" style="text;strokeColor=none;fillColor=none;align=left;verticalAlign=top;spacingLeft=4;spacingRight=4;overflow=hidden;rotatable=0;points=[[0,0.5],[1,0.5]];portConstraint=eastwest;whiteSpace=wrap;html=1;" vertex="1" parent="MKEDabIsSQttyD_tJTwk-18">
          <mxGeometry y="104" width="140" height="26" as="geometry" />
        </mxCell>
        <mxCell id="MKEDabIsSQttyD_tJTwk-72" value="+ stop() -&amp;gt; None" style="text;strokeColor=none;fillColor=none;align=left;verticalAlign=top;spacingLeft=4;spacingRight=4;overflow=hidden;rotatable=0;points=[[0,0.5],[1,0.5]];portConstraint=eastwest;whiteSpace=wrap;html=1;" vertex="1" parent="MKEDabIsSQttyD_tJTwk-18">
          <mxGeometry y="130" width="140" height="26" as="geometry" />
        </mxCell>
        <mxCell id="MKEDabIsSQttyD_tJTwk-73" value="&lt;font style=&quot;font-size: 14px;&quot;&gt;. . . . . .&lt;/font&gt;" style="text;strokeColor=none;fillColor=none;align=center;verticalAlign=top;spacingLeft=4;spacingRight=4;overflow=hidden;rotatable=0;points=[[0,0.5],[1,0.5]];portConstraint=eastwest;whiteSpace=wrap;html=1;" vertex="1" parent="MKEDabIsSQttyD_tJTwk-18">
          <mxGeometry y="156" width="140" height="26" as="geometry" />
        </mxCell>
        <mxCell id="MKEDabIsSQttyD_tJTwk-22" value="&lt;font style=&quot;font-size: 14px;&quot;&gt;notify | 通知&lt;/font&gt;" style="html=1;verticalAlign=bottom;endArrow=block;curved=0;rounded=0;exitX=1;exitY=1;exitDx=0;exitDy=0;entryX=0.5;entryY=0;entryDx=0;entryDy=0;" edge="1" parent="1" source="MKEDabIsSQttyD_tJTwk-2" target="MKEDabIsSQttyD_tJTwk-18">
          <mxGeometry width="80" relative="1" as="geometry">
            <mxPoint x="446" y="640" as="sourcePoint" />
            <mxPoint x="420" y="720" as="targetPoint" />
          </mxGeometry>
        </mxCell>
        <mxCell id="MKEDabIsSQttyD_tJTwk-23" value="" style="endArrow=diamondThin;endFill=1;endSize=24;html=1;rounded=0;entryX=0.5;entryY=0;entryDx=0;entryDy=0;" edge="1" parent="1" source="MKEDabIsSQttyD_tJTwk-42" target="MKEDabIsSQttyD_tJTwk-2">
          <mxGeometry width="160" relative="1" as="geometry">
            <mxPoint x="405" y="580" as="sourcePoint" />
            <mxPoint x="610" y="550" as="targetPoint" />
            <Array as="points" />
          </mxGeometry>
        </mxCell>
        <mxCell id="MKEDabIsSQttyD_tJTwk-24" value="" style="endArrow=diamondThin;endFill=1;endSize=24;html=1;rounded=0;entryX=0.5;entryY=0;entryDx=0;entryDy=0;" edge="1" parent="1" source="ATb3_CvslVYvHJoZufAt-14" target="MKEDabIsSQttyD_tJTwk-42">
          <mxGeometry width="160" relative="1" as="geometry">
            <mxPoint x="400" y="270" as="sourcePoint" />
            <mxPoint x="405" y="490" as="targetPoint" />
          </mxGeometry>
        </mxCell>
        <mxCell id="MKEDabIsSQttyD_tJTwk-25" value="" style="endArrow=diamondThin;endFill=1;endSize=24;html=1;rounded=0;entryX=0.5;entryY=0;entryDx=0;entryDy=0;" edge="1" parent="1" source="ATb3_CvslVYvHJoZufAt-6" target="MKEDabIsSQttyD_tJTwk-35">
          <mxGeometry width="160" relative="1" as="geometry">
            <mxPoint x="140" y="180" as="sourcePoint" />
            <mxPoint x="190" y="330" as="targetPoint" />
          </mxGeometry>
        </mxCell>
        <mxCell id="MKEDabIsSQttyD_tJTwk-26" value="" style="endArrow=diamondThin;endFill=1;endSize=24;html=1;rounded=0;entryX=0.5;entryY=0;entryDx=0;entryDy=0;" edge="1" parent="1" source="ATb3_CvslVYvHJoZufAt-6" target="MKEDabIsSQttyD_tJTwk-46">
          <mxGeometry width="160" relative="1" as="geometry">
            <mxPoint x="510" y="300" as="sourcePoint" />
            <mxPoint x="640" y="320" as="targetPoint" />
          </mxGeometry>
        </mxCell>
        <mxCell id="MKEDabIsSQttyD_tJTwk-33" value="&lt;font style=&quot;font-size: 14px;&quot;&gt;set strategy | 制定策略&lt;/font&gt;" style="html=1;verticalAlign=bottom;endArrow=block;curved=0;rounded=0;exitX=0.5;exitY=1;exitDx=0;exitDy=0;entryX=0.5;entryY=0;entryDx=0;entryDy=0;" edge="1" parent="1" source="ATb3_CvslVYvHJoZufAt-14" target="MKEDabIsSQttyD_tJTwk-42">
          <mxGeometry width="80" relative="1" as="geometry">
            <mxPoint x="630" y="450" as="sourcePoint" />
            <mxPoint x="405" y="490" as="targetPoint" />
          </mxGeometry>
        </mxCell>
        <mxCell id="MKEDabIsSQttyD_tJTwk-34" value="&lt;font style=&quot;font-size: 14px;&quot;&gt;Monitor input |&amp;nbsp;监听输入&lt;/font&gt;" style="html=1;verticalAlign=bottom;endArrow=block;curved=0;rounded=0;entryX=0.5;entryY=0;entryDx=0;entryDy=0;" edge="1" parent="1" source="MKEDabIsSQttyD_tJTwk-42" target="MKEDabIsSQttyD_tJTwk-2">
          <mxGeometry width="80" relative="1" as="geometry">
            <mxPoint x="420" y="600" as="sourcePoint" />
            <mxPoint x="490" y="630" as="targetPoint" />
          </mxGeometry>
        </mxCell>
        <mxCell id="MKEDabIsSQttyD_tJTwk-35" value="&lt;b&gt;&lt;font style=&quot;font-size: 14px;&quot;&gt;SlidePotentiometer&lt;/font&gt;&lt;/b&gt;&lt;div&gt;&lt;font style=&quot;&quot;&gt;&lt;span style=&quot;font-size: 14px;&quot;&gt;&lt;b&gt;滑动电位器&lt;/b&gt;&lt;/span&gt;&lt;br&gt;&lt;/font&gt;&lt;/div&gt;" style="swimlane;fontStyle=0;childLayout=stackLayout;horizontal=1;startSize=47;fillColor=#e3c800;horizontalStack=0;resizeParent=1;resizeParentMax=0;resizeLast=0;collapsible=1;marginBottom=0;whiteSpace=wrap;html=1;rounded=1;fontColor=#000000;strokeColor=#B09500;arcSize=28;" vertex="1" parent="1">
          <mxGeometry x="100" y="263" width="170" height="140" as="geometry" />
        </mxCell>
        <mxCell id="MKEDabIsSQttyD_tJTwk-36" value="+ board" style="text;strokeColor=none;fillColor=none;align=left;verticalAlign=top;spacingLeft=4;spacingRight=4;overflow=hidden;rotatable=0;points=[[0,0.5],[1,0.5]];portConstraint=eastwest;whiteSpace=wrap;html=1;" vertex="1" parent="MKEDabIsSQttyD_tJTwk-35">
          <mxGeometry y="47" width="170" height="26" as="geometry" />
        </mxCell>
        <mxCell id="MKEDabIsSQttyD_tJTwk-37" value="+ pin" style="text;strokeColor=none;fillColor=none;align=left;verticalAlign=top;spacingLeft=4;spacingRight=4;overflow=hidden;rotatable=0;points=[[0,0.5],[1,0.5]];portConstraint=eastwest;whiteSpace=wrap;html=1;" vertex="1" parent="MKEDabIsSQttyD_tJTwk-35">
          <mxGeometry y="73" width="170" height="26" as="geometry" />
        </mxCell>
        <mxCell id="MKEDabIsSQttyD_tJTwk-38" value="+ read_value() -&amp;gt; int" style="text;strokeColor=none;fillColor=none;align=left;verticalAlign=top;spacingLeft=4;spacingRight=4;overflow=hidden;rotatable=0;points=[[0,0.5],[1,0.5]];portConstraint=eastwest;whiteSpace=wrap;html=1;" vertex="1" parent="MKEDabIsSQttyD_tJTwk-35">
          <mxGeometry y="99" width="170" height="41" as="geometry" />
        </mxCell>
        <mxCell id="MKEDabIsSQttyD_tJTwk-42" value="&lt;font style=&quot;&quot;&gt;&lt;span style=&quot;font-size: 14px;&quot;&gt;&lt;b&gt;HomeGuardian&lt;/b&gt;&lt;/span&gt;&lt;br&gt;&lt;span style=&quot;font-size: 14px;&quot;&gt;&lt;b&gt;家庭卫士&lt;/b&gt;&lt;/span&gt;&lt;br&gt;&lt;/font&gt;" style="swimlane;fontStyle=0;childLayout=stackLayout;horizontal=1;startSize=40;fillColor=#d5e8d4;horizontalStack=0;resizeParent=1;resizeParentMax=0;resizeLast=0;collapsible=1;marginBottom=0;whiteSpace=wrap;html=1;rounded=1;strokeColor=#82b366;gradientColor=#97d077;" vertex="1" parent="1">
          <mxGeometry x="335" y="460" width="187.5" height="196" as="geometry" />
        </mxCell>
        <mxCell id="MKEDabIsSQttyD_tJTwk-43" value="+ board" style="text;strokeColor=none;fillColor=none;align=left;verticalAlign=top;spacingLeft=4;spacingRight=4;overflow=hidden;rotatable=0;points=[[0,0.5],[1,0.5]];portConstraint=eastwest;whiteSpace=wrap;html=1;" vertex="1" parent="MKEDabIsSQttyD_tJTwk-42">
          <mxGeometry y="40" width="187.5" height="26" as="geometry" />
        </mxCell>
        <mxCell id="MKEDabIsSQttyD_tJTwk-44" value="+ display" style="text;strokeColor=none;fillColor=none;align=left;verticalAlign=top;spacingLeft=4;spacingRight=4;overflow=hidden;rotatable=0;points=[[0,0.5],[1,0.5]];portConstraint=eastwest;whiteSpace=wrap;html=1;" vertex="1" parent="MKEDabIsSQttyD_tJTwk-42">
          <mxGeometry y="66" width="187.5" height="26" as="geometry" />
        </mxCell>
        <mxCell id="MKEDabIsSQttyD_tJTwk-45" value="+ fan" style="text;strokeColor=none;fillColor=none;align=left;verticalAlign=top;spacingLeft=4;spacingRight=4;overflow=hidden;rotatable=0;points=[[0,0.5],[1,0.5]];portConstraint=eastwest;whiteSpace=wrap;html=1;" vertex="1" parent="MKEDabIsSQttyD_tJTwk-42">
          <mxGeometry y="92" width="187.5" height="26" as="geometry" />
        </mxCell>
        <mxCell id="MKEDabIsSQttyD_tJTwk-51" value="+ fire_alarm" style="text;strokeColor=none;fillColor=none;align=left;verticalAlign=top;spacingLeft=4;spacingRight=4;overflow=hidden;rotatable=0;points=[[0,0.5],[1,0.5]];portConstraint=eastwest;whiteSpace=wrap;html=1;" vertex="1" parent="MKEDabIsSQttyD_tJTwk-42">
          <mxGeometry y="118" width="187.5" height="26" as="geometry" />
        </mxCell>
        <mxCell id="MKEDabIsSQttyD_tJTwk-52" value="+ light_bulb" style="text;strokeColor=none;fillColor=none;align=left;verticalAlign=top;spacingLeft=4;spacingRight=4;overflow=hidden;rotatable=0;points=[[0,0.5],[1,0.5]];portConstraint=eastwest;whiteSpace=wrap;html=1;" vertex="1" parent="MKEDabIsSQttyD_tJTwk-42">
          <mxGeometry y="144" width="187.5" height="26" as="geometry" />
        </mxCell>
        <mxCell id="MKEDabIsSQttyD_tJTwk-53" value="+ initialize(obj, method_name)" style="text;strokeColor=none;fillColor=none;align=left;verticalAlign=top;spacingLeft=4;spacingRight=4;overflow=hidden;rotatable=0;points=[[0,0.5],[1,0.5]];portConstraint=eastwest;whiteSpace=wrap;html=1;" vertex="1" parent="MKEDabIsSQttyD_tJTwk-42">
          <mxGeometry y="170" width="187.5" height="26" as="geometry" />
        </mxCell>
        <mxCell id="MKEDabIsSQttyD_tJTwk-46" value="&lt;font style=&quot;&quot;&gt;&lt;span style=&quot;font-size: 14px;&quot;&gt;&lt;b&gt;ClimateSensor&lt;/b&gt;&lt;/span&gt;&lt;br&gt;&lt;span style=&quot;font-size: 14px;&quot;&gt;&lt;b&gt;气候传感器&lt;/b&gt;&lt;/span&gt;&lt;br&gt;&lt;/font&gt;" style="swimlane;fontStyle=0;childLayout=stackLayout;horizontal=1;startSize=44;fillColor=#6d8764;horizontalStack=0;resizeParent=1;resizeParentMax=0;resizeLast=0;collapsible=1;marginBottom=0;whiteSpace=wrap;html=1;rounded=1;fontColor=#ffffff;strokeColor=#3A5431;" vertex="1" parent="1">
          <mxGeometry x="590" y="246" width="145" height="174" as="geometry" />
        </mxCell>
        <mxCell id="MKEDabIsSQttyD_tJTwk-47" value="+ board" style="text;strokeColor=none;fillColor=none;align=left;verticalAlign=top;spacingLeft=4;spacingRight=4;overflow=hidden;rotatable=0;points=[[0,0.5],[1,0.5]];portConstraint=eastwest;whiteSpace=wrap;html=1;" vertex="1" parent="MKEDabIsSQttyD_tJTwk-46">
          <mxGeometry y="44" width="145" height="26" as="geometry" />
        </mxCell>
        <mxCell id="MKEDabIsSQttyD_tJTwk-48" value="+ pin" style="text;strokeColor=none;fillColor=none;align=left;verticalAlign=top;spacingLeft=4;spacingRight=4;overflow=hidden;rotatable=0;points=[[0,0.5],[1,0.5]];portConstraint=eastwest;whiteSpace=wrap;html=1;" vertex="1" parent="MKEDabIsSQttyD_tJTwk-46">
          <mxGeometry y="70" width="145" height="26" as="geometry" />
        </mxCell>
        <mxCell id="MKEDabIsSQttyD_tJTwk-49" value="+ get_data()-&amp;gt;[]" style="text;strokeColor=none;fillColor=none;align=left;verticalAlign=top;spacingLeft=4;spacingRight=4;overflow=hidden;rotatable=0;points=[[0,0.5],[1,0.5]];portConstraint=eastwest;whiteSpace=wrap;html=1;" vertex="1" parent="MKEDabIsSQttyD_tJTwk-46">
          <mxGeometry y="96" width="145" height="26" as="geometry" />
        </mxCell>
        <mxCell id="MKEDabIsSQttyD_tJTwk-57" value="+ get_temperature()-&amp;gt;int" style="text;strokeColor=none;fillColor=none;align=left;verticalAlign=top;spacingLeft=4;spacingRight=4;overflow=hidden;rotatable=0;points=[[0,0.5],[1,0.5]];portConstraint=eastwest;whiteSpace=wrap;html=1;" vertex="1" parent="MKEDabIsSQttyD_tJTwk-46">
          <mxGeometry y="122" width="145" height="26" as="geometry" />
        </mxCell>
        <mxCell id="MKEDabIsSQttyD_tJTwk-58" value="+ get_humidity()-&amp;gt;int" style="text;strokeColor=none;fillColor=none;align=left;verticalAlign=top;spacingLeft=4;spacingRight=4;overflow=hidden;rotatable=0;points=[[0,0.5],[1,0.5]];portConstraint=eastwest;whiteSpace=wrap;html=1;" vertex="1" parent="MKEDabIsSQttyD_tJTwk-46">
          <mxGeometry y="148" width="145" height="26" as="geometry" />
        </mxCell>
        <mxCell id="MKEDabIsSQttyD_tJTwk-55" value="" style="endArrow=diamondThin;endFill=1;endSize=24;html=1;rounded=0;entryX=0.5;entryY=0;entryDx=0;entryDy=0;" edge="1" parent="1" source="ATb3_CvslVYvHJoZufAt-6" target="ATb3_CvslVYvHJoZufAt-14">
          <mxGeometry width="160" relative="1" as="geometry">
            <mxPoint x="409" y="296" as="sourcePoint" />
            <mxPoint x="416" y="440" as="targetPoint" />
          </mxGeometry>
        </mxCell>
        <mxCell id="ATb3_CvslVYvHJoZufAt-14" value="&lt;font style=&quot;&quot;&gt;&lt;span style=&quot;font-size: 14px;&quot;&gt;Strategy Pattern&lt;/span&gt;&lt;br&gt;&lt;span style=&quot;font-size: 14px;&quot;&gt;策略模式&lt;/span&gt;&lt;br&gt;&lt;/font&gt;" style="ellipse;whiteSpace=wrap;html=1;fillColor=#e51400;fontColor=#ffffff;strokeColor=#B20000;" parent="1" vertex="1">
          <mxGeometry x="359.37" y="287" width="138.75" height="90" as="geometry" />
        </mxCell>
      </root>
    </mxGraphModel>
  </diagram>
</mxfile>
